<svg width="128" height="38" viewBox="0 0 128 38" fill="none" xmlns="http://www.w3.org/2000/svg">
<g clip-path="url(#clip0_27_179)">
<path d="M38.9235 0.314331V24.831C38.9235 26.6659 37.4811 28.1567 35.6984 28.1567H33.8147V0.314331H38.9235Z" fill="#16583E"/>
<path d="M51.7809 7.91433C52.9368 7.28882 54.2545 6.97258 55.7406 6.97258C57.466 6.97258 59.0297 7.41044 60.4282 8.28964C61.8267 9.16884 62.932 10.4164 63.7476 12.0323C64.5631 13.6517 64.9708 15.5248 64.9708 17.6585C64.9708 19.7922 64.5631 21.6791 63.7476 23.3194C62.932 24.9631 61.8267 26.235 60.4282 27.1385C59.0297 28.042 57.466 28.4938 55.7406 28.4938C54.2309 28.4938 52.9132 28.1845 51.7809 27.5729C50.6486 26.9578 49.7421 26.162 49.0614 25.182V28.1532H43.9526V3.58091C43.9526 1.77734 45.3713 0.314331 47.1203 0.314331H49.0614V10.3608C49.7185 9.35649 50.6251 8.54332 51.7809 7.91433ZM59.0061 14.4058C58.5073 13.4918 57.8502 12.7933 57.0347 12.3173C56.2191 11.8412 55.3396 11.6014 54.3893 11.6014C53.4389 11.6014 52.5965 11.8446 51.7809 12.3346C50.9654 12.8246 50.3083 13.5335 49.8095 14.4614C49.3108 15.3892 49.0614 16.4804 49.0614 17.7349C49.0614 18.9894 49.3108 20.0806 49.8095 21.0084C50.3083 21.9363 50.9654 22.6452 51.7809 23.1352C52.5965 23.6252 53.4659 23.8684 54.3893 23.8684C55.3126 23.8684 56.2191 23.6182 57.0347 23.1178C57.8502 22.6174 58.5073 21.9015 59.0061 20.9737C59.5048 20.0458 59.7542 18.9408 59.7542 17.6619C59.7542 16.3831 59.5048 15.3232 59.0061 14.4058Z" fill="#16583E"/>
<path d="M68.606 12.0527C69.4215 10.4229 70.5268 9.16842 71.9253 8.28922C73.3239 7.41003 74.8875 6.97217 76.6129 6.97217C78.1193 6.97217 79.4403 7.28493 80.5726 7.91391C81.7049 8.5429 82.608 9.33175 83.2921 10.2839V7.31273H85.6174C87.1743 7.31273 88.438 8.61588 88.438 10.2214V28.1563H83.2921V25.1086C82.635 26.0851 81.7285 26.8948 80.5726 27.5342C79.4167 28.1736 78.0856 28.4933 76.5758 28.4933C74.874 28.4933 73.3205 28.0416 71.922 27.1381C70.5234 26.2345 69.4147 24.9627 68.6026 23.3189C67.7871 21.6752 67.3793 19.7883 67.3793 17.658C67.3793 15.5278 67.7871 13.6825 68.6026 12.0527H68.606ZM82.5608 14.4436C82.0722 13.5296 81.4151 12.8242 80.5894 12.3377C79.7638 11.8477 78.8741 11.6044 77.9272 11.6044C76.9802 11.6044 76.104 11.8442 75.2986 12.3203C74.4966 12.7964 73.8462 13.4914 73.3474 14.4088C72.8487 15.3263 72.5993 16.4105 72.5993 17.665C72.5993 18.9195 72.8487 20.0176 73.3474 20.9559C73.8462 21.8976 74.5033 22.617 75.3189 23.1209C76.1344 23.6213 77.0038 23.8715 77.9272 23.8715C78.8505 23.8715 79.7638 23.6282 80.5894 23.1382C81.4151 22.6483 82.0722 21.9463 82.5608 21.0323C83.0461 20.1184 83.2887 19.0203 83.2887 17.7414C83.2887 16.4626 83.0461 15.3645 82.5608 14.4505V14.4436Z" fill="#16583E"/>
<path d="M101.11 7.95102C102.168 7.32551 103.378 7.00928 104.74 7.00928V12.5416H103.388C101.784 12.5416 100.571 12.9308 99.7588 13.7092C98.9433 14.4876 98.5355 15.8429 98.5355 17.7716V28.1551H93.4267V7.31161H98.5355V10.5469C99.1927 9.44183 100.049 8.57654 101.107 7.95102H101.11Z" fill="#16583E"/>
<path d="M108.202 12.0582C109.041 10.4388 110.177 9.1808 111.612 8.27728C113.048 7.37376 114.628 6.922 116.354 6.922C117.789 6.922 119.06 7.20348 120.169 7.76992C121.274 8.33288 122.17 9.0557 122.851 9.93489V7.2278H127.997V38.0066H126.801C124.62 38.0066 122.854 36.1857 122.854 33.9373V25.2148C122.174 26.1183 121.26 26.869 120.118 27.4736C118.976 28.0748 117.685 28.3771 116.249 28.3771C114.547 28.3771 112.984 27.9184 111.562 27.0045C110.14 26.0871 109.014 24.8152 108.188 23.1854C107.363 21.5556 106.948 19.6999 106.948 17.6183C106.948 15.5367 107.37 13.688 108.209 12.0686L108.202 12.0582ZM122.086 14.3343C121.574 13.4065 120.913 12.7045 120.098 12.2284C119.282 11.7524 118.413 11.5126 117.489 11.5126C116.566 11.5126 115.73 11.7524 114.918 12.2284C114.103 12.7045 113.442 13.3995 112.93 14.317C112.418 15.2344 112.165 16.329 112.165 17.6079C112.165 18.8867 112.421 19.9987 112.93 20.937C113.442 21.8787 114.103 22.5877 114.918 23.0637C115.734 23.5398 116.59 23.7796 117.489 23.7796C118.389 23.7796 119.282 23.5398 120.098 23.0637C120.913 22.5877 121.577 21.8857 122.086 20.9578C122.598 20.03 122.851 18.9249 122.851 17.6461C122.851 16.3673 122.595 15.2622 122.086 14.3343Z" fill="#16583E"/>
<path d="M18.424 3.33984C18.424 3.33984 14.3969 18.87 18.7711 26.8835C19.2698 27.7975 20.2202 28.3361 21.221 28.3361H24.7561C26.0906 28.3361 27.1757 27.1928 27.1757 25.7854V11.5376C27.1757 10.2136 26.5455 8.9799 25.4975 8.25013L18.4274 3.33984H18.424Z" fill="#16583E"/>
<path d="M0 14.1928V25.6084C0 27.0992 1.15589 28.3086 2.58137 28.3086H15.6769C15.4646 27.3182 13.6988 16.9207 1.71529 12.8966C0.869442 12.6116 0 13.2615 0 14.1928Z" fill="#16583E"/>
<path d="M0.619609 8.12895L11.737 0.389944C13.3613 -0.742932 15.4911 0.761777 15.0598 2.73215L13.3883 10.353C13.0816 11.7569 11.6393 12.5527 10.3351 12.0384L0.629718 8.2193C0.592649 8.2054 0.589279 8.15327 0.619609 8.13242V8.12895Z" fill="#16583E"/>
</g>
<defs>
<clipPath id="clip0_27_179">
<rect width="128" height="38" fill="white"/>
</clipPath>
</defs>
</svg>
